<svg width="864" height="864" viewBox="0 0 864 864" fill="none" xmlns="http://www.w3.org/2000/svg">
<g clip-path="url(#clip0_5_2)">
<circle cx="432" cy="432" r="432" fill="#C19533"/>
<path d="M171.661 614C182.476 565.988 188.589 507.149 188.589 444.074C188.589 388.059 183.416 328.75 171.661 271.324C191.41 275.089 210.69 276.501 229.969 276.501C268.058 276.501 304.735 271.324 338.592 271.324C431.697 271.324 474.018 358.405 475.429 444.545V449.252C475.429 532.567 436.4 614 338.592 614C303.795 614 268.058 608.822 230.439 608.822C211.16 608.822 191.88 610.234 171.661 614ZM323.074 363.583H321.664C308.027 363.583 299.093 406.417 299.093 447.369C299.093 483.614 306.146 518.917 323.074 522.212C324.955 522.682 326.366 522.682 328.247 522.682C351.288 522.682 362.574 489.262 362.574 452.547C362.574 413.007 348.937 369.702 323.074 363.583Z" fill="#28282B"/>
<path d="M477.952 614C490.178 566.929 497.232 505.266 497.232 442.662C497.232 383.352 491.119 322.631 477.952 271.324C498.643 274.619 524.035 276.031 549.898 276.031C580.462 276.031 611.968 274.148 637.83 271.324C643.473 270.853 648.646 270.382 653.818 270.382C732.347 270.382 771.846 334.399 774.667 383.352C774.667 386.177 775.137 389.472 775.137 392.296C775.137 445.957 743.162 478.436 718.24 491.616C749.745 533.038 785.012 576.814 801 614C783.602 609.293 752.566 606.939 722.002 606.939C690.026 606.939 658.521 609.293 642.533 614C644.414 605.057 645.354 590.935 645.354 575.402C645.354 540.099 639.711 497.735 622.783 497.735C620.902 497.735 619.492 497.735 617.611 498.676C611.027 501.5 608.206 513.739 608.206 528.802C608.206 556.103 616.67 594.23 625.604 614C601.153 609.764 576.701 607.881 551.778 607.881C527.327 607.881 502.875 609.764 477.952 614ZM625.604 361.229H622.783C612.908 361.7 605.855 380.057 605.855 397.474C605.855 411.595 611.027 424.775 622.783 426.187C624.664 426.658 626.545 426.658 628.426 426.658C650.056 426.658 660.872 411.124 660.872 395.12C660.872 378.645 648.646 361.229 625.604 361.229Z" fill="#28282B"/>
<path d="M144 594.618C154.815 546.606 160.928 487.767 160.928 424.692C160.928 368.677 155.756 309.368 144 251.941C163.75 255.707 183.029 257.119 202.308 257.119C240.397 257.119 277.075 251.941 310.931 251.941C404.037 251.941 446.357 339.023 447.768 425.162V429.87C447.768 513.185 408.739 594.618 310.931 594.618C276.134 594.618 240.397 589.44 202.779 589.44C183.499 589.44 164.22 590.852 144 594.618ZM295.414 344.2H294.003C280.366 344.2 271.432 387.035 271.432 427.987C271.432 464.231 278.486 499.535 295.414 502.83C297.295 503.3 298.705 503.3 300.586 503.3C323.628 503.3 334.913 469.88 334.913 433.165C334.913 393.625 321.276 350.32 295.414 344.2Z" fill="#F9F9F9"/>
<path d="M450.292 594.618C462.518 547.547 469.571 485.884 469.571 423.28C469.571 363.97 463.458 303.249 450.292 251.941C470.982 255.236 496.374 256.649 522.237 256.649C552.802 256.649 584.307 254.766 610.17 251.941C615.813 251.471 620.985 251 626.158 251C704.686 251 744.185 315.016 747.007 363.97C747.007 366.795 747.477 370.089 747.477 372.914C747.477 426.575 715.501 459.054 690.579 472.233C722.084 513.656 757.352 557.432 773.339 594.618C755.941 589.911 724.906 587.557 694.341 587.557C662.365 587.557 630.86 589.911 614.872 594.618C616.753 585.674 617.694 571.553 617.694 556.02C617.694 520.716 612.051 478.353 595.123 478.353C593.242 478.353 591.831 478.353 589.95 479.294C583.367 482.118 580.545 494.357 580.545 509.419C580.545 536.721 589.01 574.848 597.944 594.618C573.492 590.381 549.04 588.499 524.118 588.499C499.666 588.499 475.214 590.381 450.292 594.618ZM597.944 341.847H595.123C585.248 342.318 578.194 360.675 578.194 378.092C578.194 392.213 583.367 405.393 595.123 406.805C597.003 407.276 598.884 407.276 600.765 407.276C622.396 407.276 633.211 391.742 633.211 375.738C633.211 359.263 620.985 341.847 597.944 341.847Z" fill="#F9F9F9"/>
</g>
<defs>
<clipPath id="clip0_5_2">
<rect width="864" height="864" fill="white"/>
</clipPath>
</defs>
</svg>
